<svg xmlns="http://www.w3.org/2000/svg" width="49" height="44" viewBox="0 0 49 44" fill="none">
    <path d="M4.5 6.5C4.5 6.5 4.72407 9.83274 2.2205 10.9495C0.442327 11.7427 0.500001 12.5 1 13C1.5 13.5 3.51288 13.578 4.72407 12.8292C5.93526 12.0804 7.91887 9.8098 7.91887 9.8098L6.50812 7.18244L4.5 6.5Z"
          fill="#FF002E"/>
    <path d="M13.5 1.5C17.5 2.83333 18.5928 6.0046 18.3636 8.84844C18.1345 11.6923 16.195 14.3029 14.906 16.2997C13.6375 18.2679 11.3584 21.5127 10.6423 22.7894C9.27972 25.2281 9.25359 26.8817 9.25359 26.8817C9.25359 26.8817 11.9812 22.5219 19.3156 20.0669C26.1536 17.7875 30.7123 22.3462 37.3301 22.7894C42.1091 23.4859 46.5177 19.8544 46.9006 20.3344C47.2075 20.719 43.8726 24.7038 45.2638 25.2448C47.0836 25.9525 47.4502 22.5873 47.8543 22.7894C48.7218 23.2231 48.2959 30.2661 45.2638 35.0658C42.2317 39.8656 36.8956 43.9156 25.3566 43.9893C13.8708 44.067 6.1205 43.2099 2 36C-0.917492 30.8934 1.08083 25.7652 4.46361 21.3695C6.7792 17.7875 15 11.5 12.5 9.5C11 8.5 7.84348 10.1906 7.84348 10.1906L5 7.5C5 7.5 3.5 7 4.5 4.5C5.41847 2.20384 8.71524 -0.0949157 13.5 1.5Z"
          fill="#1E1E1E"/>
    <path d="M9.05854 5.25111C9.05854 5.88053 8.54829 6.39078 7.91887 6.39078C7.28944 6.39078 6.77919 5.88053 6.77919 5.25111C6.77919 4.62168 7.28944 4.11144 7.91887 4.11144C8.54829 4.11144 9.05854 4.62168 9.05854 5.25111Z"
          fill="#FF002E"/>
    <path d="M5.15729 6.02506L6.91521 5.04717C6.97082 5.01624 7.0334 5 7.09703 5C7.43025 5 7.59712 5.40288 7.3615 5.6385L6.5 6.5C6.04964 7.03932 6.19154 7.85399 6.79774 8.20927L7.95697 8.88869C8.48461 9.19793 8.57758 9.92242 8.14512 10.3549C8.04952 10.4505 7.93429 10.5242 7.8074 10.5709L7.73397 10.5979C7.17404 10.8041 6.5458 10.5994 6.21483 10.1029L4.71472 7.85276C4.57461 7.6426 4.49985 7.39568 4.49985 7.14309C4.49985 6.67872 4.75148 6.25081 5.15729 6.02506Z"
          fill="#FF002E"/>
</svg>
